<?xml version="1.0" encoding="UTF-8" standalone="no"?>
<!-- Created with Inkscape (http://www.inkscape.org/) -->

<svg
   width="81.804337mm"
   height="63.324818mm"
   viewBox="0 0 81.804337 63.324817"
   version="1.1"
   id="svg5"
   xml:space="preserve"
   sodipodi:docname="YouTube_2024.svg"
   inkscape:version="1.3 (0e150ed6c4, 2023-07-21)"
   xmlns:inkscape="http://www.inkscape.org/namespaces/inkscape"
   xmlns:sodipodi="http://sodipodi.sourceforge.net/DTD/sodipodi-0.dtd"
   xmlns="http://www.w3.org/2000/svg"
   xmlns:svg="http://www.w3.org/2000/svg"><sodipodi:namedview
     id="namedview1"
     pagecolor="#ffffff"
     bordercolor="#999999"
     borderopacity="1"
     inkscape:showpageshadow="2"
     inkscape:pageopacity="0"
     inkscape:pagecheckerboard="0"
     inkscape:deskcolor="#d1d1d1"
     inkscape:document-units="mm"
     inkscape:zoom="0.63784337"
     inkscape:cx="734.50634"
     inkscape:cy="660.03664"
     inkscape:window-width="1920"
     inkscape:window-height="1017"
     inkscape:window-x="-8"
     inkscape:window-y="-8"
     inkscape:window-maximized="1"
     inkscape:current-layer="svg5" /><defs
     id="defs2" /><path
     id="rect2"
     style="fill:#2c4251;fill-opacity:1;stroke:none;stroke-width:20;stroke-linecap:square;stroke-miterlimit:5"
     d="M 29.365265,-5.3167832e-7 C 23.439345,1.0252695 17.771215,2.8329095 12.475855,5.3169795 1.7950646,21.457059 -1.1003054,37.195809 0.34739461,52.711509 c 7.08405999,5.2902 13.94903039,8.50418 20.69848039,10.6071 1.66647,-2.29355 3.15293,-4.73184 4.43332,-7.30136 -2.43855,-0.9266 -4.7741,-2.06973 -6.98097,-3.39721 0.58547,-0.43375 1.15824,-0.88732 1.71152,-1.35392 13.46033,6.29574 28.08504,6.29574 41.38456,0 0.55979,0.4666 1.13244,0.92017 1.71152,1.35392 -2.21337,1.33399 -4.55534,2.47722 -6.99389,3.40393 1.28039,2.5629 2.76045,5.00741 4.43332,7.30084 6.75596,-2.10291 13.62733,-5.31648 20.7114,-10.6133 1.69866,-17.98665 -2.90163,-33.58117 -12.1605,-47.4079595 -5.29536,-2.47757 -10.95749,-4.27828 -16.877,-5.30355003167832 C 51.692165,1.3143595 50.843105,3.0822895 50.257525,4.4886095 c -6.2926,-0.94633 -12.52741,-0.94633 -18.70428,0 -0.58547,-1.40632 -1.45449,-3.17425 -2.18798,-4.48861003167832 z M 27.312675,26.431459 c 4.11152,0 7.42535,3.77239 7.35459,8.37261 0.006,4.59361 -3.24307,8.3659 -7.35459,8.3659 -4.04066,0 -7.35407,-3.77229 -7.35407,-8.3659 0,-4.5936 3.24265,-8.37261 7.35407,-8.37261 z m 27.17818,0 c 4.11142,0 7.42535,3.77239 7.35459,8.37261 0,4.59361 -3.24317,8.3659 -7.35459,8.3659 -4.04065,0 -7.35407,-3.77229 -7.35407,-8.3659 0,-4.5936 3.24255,-8.37261 7.35407,-8.37261 z" /></svg>
