<?xml version="1.0" encoding="UTF-8" standalone="no"?>
<!-- Created with Inkscape (http://www.inkscape.org/) -->

<svg
   width="220.00549mm"
   height="200.94104mm"
   viewBox="0 0 220.00549 200.94104"
   version="1.1"
   id="svg1"
   xml:space="preserve"
   inkscape:version="1.3 (0e150ed6c4, 2023-07-21)"
   sodipodi:docname="PatrikLani.svg"
   xmlns:inkscape="http://www.inkscape.org/namespaces/inkscape"
   xmlns:sodipodi="http://sodipodi.sourceforge.net/DTD/sodipodi-0.dtd"
   xmlns="http://www.w3.org/2000/svg"
   xmlns:svg="http://www.w3.org/2000/svg"><sodipodi:namedview
     id="namedview1"
     pagecolor="#ffffff"
     bordercolor="#999999"
     borderopacity="1"
     inkscape:showpageshadow="2"
     inkscape:pageopacity="0"
     inkscape:pagecheckerboard="0"
     inkscape:deskcolor="#d1d1d1"
     inkscape:document-units="mm"
     inkscape:zoom="0.25008148"
     inkscape:cx="-1721.4389"
     inkscape:cy="4070.6733"
     inkscape:window-width="1920"
     inkscape:window-height="1017"
     inkscape:window-x="-8"
     inkscape:window-y="-8"
     inkscape:window-maximized="1"
     inkscape:current-layer="layer1"
     showgrid="false" /><defs
     id="defs1" /><g
     inkscape:label="Layer 1"
     inkscape:groupmode="layer"
     id="layer1"
     transform="translate(581.80659,-880.16202)"><g
       id="g101"
       transform="translate(-591.07859,-117.0329)"
       style="fill:#ffffff;fill-opacity:1;stroke:#ffffff;stroke-width:20;stroke-linecap:square;stroke-linejoin:miter;stroke-dasharray:none;stroke-opacity:1"
       inkscape:export-filename="Lanie.svg"
       inkscape:export-xdpi="236.44499"
       inkscape:export-ydpi="236.44499"><path
         style="fill:#ffffff;fill-opacity:1;stroke:#ffffff;stroke-width:20;stroke-linecap:square;stroke-linejoin:miter;stroke-miterlimit:5;stroke-dasharray:none;stroke-opacity:1;paint-order:stroke fill markers"
         d="m 142.33874,1146.7735 c 0,-29.7841 -17.65675,-40.3492 -43.39566,-39.2621 -25.73879,1.0871 -64.75075,22.4493 -79.6711,13.835 0,66.7882 57.11781,66.7884 79.6711,66.7882 22.55341,-1e-4 43.39566,-11.5772 43.39566,-41.3611 z"
         id="path90"
         sodipodi:nodetypes="zzczz" /><path
         id="path91"
         style="fill:#ffffff;fill-opacity:1;stroke:#ffffff;stroke-width:20;stroke-linecap:square;stroke-linejoin:miter;stroke-miterlimit:5;stroke-dasharray:none;stroke-opacity:1;paint-order:normal"
         d="m 46.5627,1120.4343 c -11.36498,2.9644 -21.28945,4.3772 -27.29072,0.9125 0,17.3162 3.84549,30.1339 9.9268,39.6349 l 12.44269,-0.3386 -4.0758,-11.0273 11.26767,0.8388 -8.03118,-10.0686 9.82881,-1.4384 -9.46912,-7.6714 11.50698,-1.9175 z" /><path
         id="path92"
         style="fill:#ffffff;fill-opacity:1;stroke:#ffffff;stroke-width:20;stroke-linecap:square;stroke-linejoin:miter;stroke-miterlimit:5;stroke-dasharray:none;stroke-opacity:1;paint-order:stroke fill markers"
         d="m 205.97005,1008.3514 c -4.30096,-2.4832 -14.73367,0.2221 -26.74718,6.4221 l 3.76698,-6.5246 c -5.1999,-3.0021 -36.19258,22.7822 -51.48395,49.2677 l 34.55895,19.9525 17.27948,9.9764 17.27941,9.9762 c 15.29137,-26.4854 22.12502,-66.218 16.92506,-69.2202 l -3.76698,6.5246 c -0.63737,-13.504 -3.51087,-23.8916 -7.81177,-26.3747 z" /><path
         id="path93"
         style="fill:#ffffff;fill-opacity:1;stroke:#ffffff;stroke-width:20;stroke-linecap:square;stroke-linejoin:miter;stroke-miterlimit:5;stroke-dasharray:none;stroke-opacity:1;paint-order:stroke fill markers"
         d="m 201.66584,1007.4352 c 1.7706,0 3.22902,0.2955 4.30427,0.9162 4.3009,2.4831 7.1744,12.8706 7.81177,26.3746 l 3.76686,-6.5247 c 3.397,1.9613 1.6305,19.6097 -4.24666,38.988 a 55.824376,45.650929 30 0 0 -28.4633,-34.2222 55.824376,45.650929 30 0 0 -26.6267,-8.4886 c 11.43963,-10.9187 21.94374,-17.8659 24.77783,-16.2297 l -3.76716,6.5247 c 9.01008,-4.65 17.13128,-7.3344 22.44309,-7.3383 z" /><path
         id="path94"
         style="fill:#ffffff;fill-opacity:1;stroke:#ffffff;stroke-width:20;stroke-linecap:square;stroke-linejoin:miter;stroke-miterlimit:5;stroke-dasharray:none;stroke-opacity:1;paint-order:stroke fill markers"
         d="m 194.5686,1028.0992 c -7.42849,-4.2889 -40.44592,13.0468 -53.18879,35.118 l 24.68498,14.2519 24.68498,14.2519 c 12.74287,-22.0712 11.24732,-59.333 3.81883,-63.6218 z" /><path
         id="path95"
         style="fill:#ffffff;fill-opacity:1;stroke:#ffffff;stroke-width:20;stroke-linecap:square;stroke-linejoin:miter;stroke-miterlimit:5;stroke-dasharray:none;stroke-opacity:1;paint-order:stroke fill markers"
         d="m 48.37345,1008.3514 c 4.30096,-2.4832 14.73367,0.2221 26.74718,6.4221 l -3.76698,-6.5246 c 5.1999,-3.0021 36.19258,22.7822 51.48395,49.2677 l -34.55895,19.9525 -17.27948,9.9764 -17.27941,9.9762 c -15.29137,-26.4854 -22.12502,-66.218 -16.92506,-69.2202 l 3.76698,6.5246 c 0.63737,-13.504 3.51087,-23.8916 7.81177,-26.3747 z" /><path
         id="path96"
         style="fill:#ffffff;fill-opacity:1;stroke:#ffffff;stroke-width:20;stroke-linecap:square;stroke-linejoin:miter;stroke-miterlimit:5;stroke-dasharray:none;stroke-opacity:1;paint-order:stroke fill markers"
         d="m 52.67766,1007.4352 c -1.7706,0 -3.22902,0.2955 -4.30427,0.9162 -4.3009,2.4831 -7.1744,12.8706 -7.81177,26.3746 l -3.76686,-6.5247 c -3.397,1.9613 -1.6305,19.6097 4.24666,38.988 a 45.650929,55.824376 60 0 1 28.4633,-34.2222 45.650929,55.824376 60 0 1 26.6267,-8.4886 c -11.43963,-10.9187 -21.94374,-17.8659 -24.77783,-16.2297 l 3.76716,6.5247 c -9.01008,-4.65 -17.13128,-7.3344 -22.44309,-7.3383 z" /><path
         id="path97"
         style="fill:#ffffff;fill-opacity:1;stroke:#ffffff;stroke-width:20;stroke-linecap:square;stroke-linejoin:miter;stroke-miterlimit:5;stroke-dasharray:none;stroke-opacity:1;paint-order:stroke fill markers"
         d="m 59.7749,1028.0992 c 7.42849,-4.2889 40.44592,13.0468 53.18879,35.118 l -24.68498,14.2519 -24.68498,14.2519 c -12.74287,-22.0712 -11.24732,-59.333 -3.81883,-63.6218 z" /><circle
         style="fill:#ffffff;fill-opacity:1;stroke:#ffffff;stroke-width:20;stroke-linecap:square;stroke-linejoin:miter;stroke-miterlimit:5;stroke-dasharray:none;stroke-opacity:1;paint-order:stroke fill markers"
         id="circle97"
         cx="127.17179"
         cy="1111.5276"
         r="76.607002" /><path
         style="fill:#ffffff;fill-opacity:1;stroke:#ffffff;stroke-width:20;stroke-linecap:square;stroke-linejoin:miter;stroke-miterlimit:5;stroke-dasharray:none;stroke-opacity:1;paint-order:normal"
         d="m 147.30484,1089.9387 27.05054,10.889 c -11.26509,18.0902 -42.94043,19.1665 -58.57138,12.3791"
         id="path98"
         sodipodi:nodetypes="ccc" /><path
         style="fill:#ffffff;fill-opacity:1;stroke:#ffffff;stroke-width:20;stroke-linecap:square;stroke-linejoin:miter;stroke-miterlimit:5;stroke-dasharray:none;stroke-opacity:1;paint-order:normal"
         d="m 118.79153,1043.9108 c 46.20499,-8.8352 40.77888,33.3159 56.58377,42.4408 -16.44606,18.7206 -46.50775,23.5022 -68.84316,9.6044"
         id="path99"
         sodipodi:nodetypes="ccc" /><path
         id="path100"
         style="fill:#ffffff;fill-opacity:1;stroke:#ffffff;stroke-width:20;stroke-linecap:square;stroke-linejoin:miter;stroke-miterlimit:5;stroke-dasharray:none;stroke-opacity:1;paint-order:normal"
         d="m 72.83639,1125.6161 v 3.0644 h 24.51437 v 16.0536 c 0,3.3953 2.73327,6.1285 6.1285,6.1285 3.39522,0 6.1285,-2.7332 6.1285,-6.1285 v -16.0536 -1.5322 -1.5322 z" /><path
         id="path101"
         style="fill:#ffffff;fill-opacity:1;stroke:#ffffff;stroke-width:20;stroke-linecap:square;stroke-linejoin:miter;stroke-miterlimit:5;stroke-dasharray:none;stroke-opacity:1;paint-order:normal"
         d="m 181.50717,1125.6161 v 3.0644 H 156.9928 v 16.0536 c 0,3.3953 -2.73327,6.1285 -6.1285,6.1285 -3.39522,0 -6.12849,-2.7332 -6.12849,-6.1285 v -16.0536 -1.5322 -1.5322 z" /></g><g
       id="g89"
       transform="translate(-591.07859,-117.0329)"><path
         style="fill:#2c4251;fill-opacity:1;stroke:none;stroke-width:6.12856;stroke-linecap:round;stroke-linejoin:miter;stroke-miterlimit:5;stroke-dasharray:none;stroke-opacity:1;paint-order:stroke fill markers"
         d="m 142.33874,1146.7735 c 0,-29.7841 -17.65675,-40.3492 -43.39566,-39.2621 -25.73879,1.0871 -64.75075,22.4493 -79.6711,13.835 0,66.7882 57.11781,66.7884 79.6711,66.7882 22.55341,-1e-4 43.39566,-11.5772 43.39566,-41.3611 z"
         id="path68"
         sodipodi:nodetypes="zzczz" /><path
         id="path73"
         style="fill:#519e8a;fill-opacity:1;stroke:none;stroke-width:4.53177;stroke-linecap:round;stroke-linejoin:miter;stroke-miterlimit:5;stroke-dasharray:none;stroke-opacity:1;paint-order:normal"
         d="m 46.5627,1120.4343 c -11.36498,2.9644 -21.28945,4.3772 -27.29072,0.9125 0,17.3162 3.84549,30.1339 9.9268,39.6349 l 12.44269,-0.3386 -4.0758,-11.0273 11.26767,0.8388 -8.03118,-10.0686 9.82881,-1.4384 -9.46912,-7.6714 11.50698,-1.9175 z" /><path
         id="path75"
         style="fill:#2c4251;fill-opacity:1;stroke-width:12.2291;stroke-linecap:square;stroke-miterlimit:5;paint-order:stroke fill markers"
         d="m 205.97005,1008.3514 c -4.30096,-2.4832 -14.73367,0.2221 -26.74718,6.4221 l 3.76698,-6.5246 c -5.1999,-3.0021 -36.19258,22.7822 -51.48395,49.2677 l 34.55895,19.9525 17.27948,9.9764 17.27941,9.9762 c 15.29137,-26.4854 22.12502,-66.218 16.92506,-69.2202 l -3.76698,6.5246 c -0.63737,-13.504 -3.51087,-23.8916 -7.81177,-26.3747 z" /><path
         id="path79"
         style="fill:#519e8a;fill-opacity:1;stroke-width:12.2291;stroke-linecap:square;stroke-miterlimit:5;paint-order:stroke fill markers"
         d="m 201.66584,1007.4352 c 1.7706,0 3.22902,0.2955 4.30427,0.9162 4.3009,2.4831 7.1744,12.8706 7.81177,26.3746 l 3.76686,-6.5247 c 3.397,1.9613 1.6305,19.6097 -4.24666,38.988 a 55.824376,45.650929 30 0 0 -28.4633,-34.2222 55.824376,45.650929 30 0 0 -26.6267,-8.4886 c 11.43963,-10.9187 21.94374,-17.8659 24.77783,-16.2297 l -3.76716,6.5247 c 9.01008,-4.65 17.13128,-7.3344 22.44309,-7.3383 z" /><path
         id="path81"
         style="fill:#fcfff7;fill-opacity:1;stroke-width:8.7351;stroke-linecap:square;stroke-miterlimit:5;paint-order:stroke fill markers"
         d="m 194.5686,1028.0992 c -7.42849,-4.2889 -40.44592,13.0468 -53.18879,35.118 l 24.68498,14.2519 24.68498,14.2519 c 12.74287,-22.0712 11.24732,-59.333 3.81883,-63.6218 z" /><path
         id="path83"
         style="fill:#2c4251;fill-opacity:1;stroke-width:12.2291;stroke-linecap:square;stroke-miterlimit:5;paint-order:stroke fill markers"
         d="m 48.37345,1008.3514 c 4.30096,-2.4832 14.73367,0.2221 26.74718,6.4221 l -3.76698,-6.5246 c 5.1999,-3.0021 36.19258,22.7822 51.48395,49.2677 l -34.55895,19.9525 -17.27948,9.9764 -17.27941,9.9762 c -15.29137,-26.4854 -22.12502,-66.218 -16.92506,-69.2202 l 3.76698,6.5246 c 0.63737,-13.504 3.51087,-23.8916 7.81177,-26.3747 z" /><path
         id="path84"
         style="fill:#519e8a;fill-opacity:1;stroke-width:12.2291;stroke-linecap:square;stroke-miterlimit:5;paint-order:stroke fill markers"
         d="m 52.67766,1007.4352 c -1.7706,0 -3.22902,0.2955 -4.30427,0.9162 -4.3009,2.4831 -7.1744,12.8706 -7.81177,26.3746 l -3.76686,-6.5247 c -3.397,1.9613 -1.6305,19.6097 4.24666,38.988 a 45.650929,55.824376 60 0 1 28.4633,-34.2222 45.650929,55.824376 60 0 1 26.6267,-8.4886 c -11.43963,-10.9187 -21.94374,-17.8659 -24.77783,-16.2297 l 3.76716,6.5247 c -9.01008,-4.65 -17.13128,-7.3344 -22.44309,-7.3383 z" /><path
         id="path85"
         style="fill:#fcfff7;fill-opacity:1;stroke-width:8.7351;stroke-linecap:square;stroke-miterlimit:5;paint-order:stroke fill markers"
         d="m 59.7749,1028.0992 c 7.42849,-4.2889 40.44592,13.0468 53.18879,35.118 l -24.68498,14.2519 -24.68498,14.2519 c -12.74287,-22.0712 -11.24732,-59.333 -3.81883,-63.6218 z" /><circle
         style="fill:#2c4251;fill-opacity:1;stroke:none;stroke-width:18.2208;stroke-linecap:square;stroke-miterlimit:5;paint-order:stroke fill markers"
         id="circle85"
         cx="127.17179"
         cy="1111.5276"
         r="76.607002" /><path
         style="fill:#2c4251;fill-opacity:1;stroke:#519e8a;stroke-width:3.06428;stroke-linecap:round;stroke-linejoin:miter;stroke-miterlimit:5;stroke-dasharray:none;stroke-opacity:1;paint-order:normal"
         d="m 147.30484,1089.9387 27.05054,10.889 c -11.26509,18.0902 -42.94043,19.1665 -58.57138,12.3791"
         id="path86"
         sodipodi:nodetypes="ccc" /><path
         style="fill:#2c4251;fill-opacity:1;stroke:#519e8a;stroke-width:3.06428;stroke-linecap:round;stroke-linejoin:miter;stroke-miterlimit:5;stroke-dasharray:none;stroke-opacity:1;paint-order:normal"
         d="m 118.79153,1043.9108 c 46.20499,-8.8352 40.77888,33.3159 56.58377,42.4408 -16.44606,18.7206 -46.50775,23.5022 -68.84316,9.6044"
         id="path87"
         sodipodi:nodetypes="ccc" /><path
         id="path88"
         style="fill:#fcfff7;fill-opacity:1;stroke:none;stroke-width:2.3965;stroke-linecap:round;stroke-linejoin:miter;stroke-miterlimit:5;stroke-dasharray:none;stroke-opacity:1;paint-order:normal"
         d="m 72.83639,1125.6161 v 3.0644 h 24.51437 v 16.0536 c 0,3.3953 2.73327,6.1285 6.1285,6.1285 3.39522,0 6.1285,-2.7332 6.1285,-6.1285 v -16.0536 -1.5322 -1.5322 z" /><path
         id="path89"
         style="fill:#fcfff7;fill-opacity:1;stroke:none;stroke-width:2.3965;stroke-linecap:round;stroke-linejoin:miter;stroke-miterlimit:5;stroke-dasharray:none;stroke-opacity:1;paint-order:normal"
         d="m 181.50717,1125.6161 v 3.0644 H 156.9928 v 16.0536 c 0,3.3953 -2.73327,6.1285 -6.1285,6.1285 -3.39522,0 -6.12849,-2.7332 -6.12849,-6.1285 v -16.0536 -1.5322 -1.5322 z" /></g></g></svg>
