<?xml version="1.0" encoding="UTF-8" standalone="no"?>
<!-- Created with Inkscape (http://www.inkscape.org/) -->

<svg
   width="868.3208mm"
   height="139.99986mm"
   viewBox="0 0 868.3208 139.99986"
   version="1.1"
   id="svg1"
   xml:space="preserve"
   inkscape:version="1.3 (0e150ed6c4, 2023-07-21)"
   sodipodi:docname="PatrikLani.svg"
   xmlns:inkscape="http://www.inkscape.org/namespaces/inkscape"
   xmlns:sodipodi="http://sodipodi.sourceforge.net/DTD/sodipodi-0.dtd"
   xmlns="http://www.w3.org/2000/svg"
   xmlns:svg="http://www.w3.org/2000/svg"><sodipodi:namedview
     id="namedview1"
     pagecolor="#ffffff"
     bordercolor="#999999"
     borderopacity="1"
     inkscape:showpageshadow="2"
     inkscape:pageopacity="0"
     inkscape:pagecheckerboard="0"
     inkscape:deskcolor="#d1d1d1"
     inkscape:document-units="mm"
     inkscape:zoom="0.17683431"
     inkscape:cx="3848.2351"
     inkscape:cy="5519.2909"
     inkscape:window-width="1920"
     inkscape:window-height="1017"
     inkscape:window-x="-8"
     inkscape:window-y="-8"
     inkscape:window-maximized="1"
     inkscape:current-layer="layer1"
     showgrid="false" /><defs
     id="defs1" /><g
     inkscape:label="Layer 1"
     inkscape:groupmode="layer"
     id="layer1"
     transform="translate(-571.69783,-1498.9212)"><path
       id="text36"
       style="font-weight:bold;font-size:119.94px;line-height:0.9;font-family:Helvetica;-inkscape-font-specification:'Helvetica Bold';letter-spacing:0px;word-spacing:0px;fill:#fcfff7;fill-opacity:1;stroke:#fcfff7;stroke-width:20;stroke-linecap:square;stroke-miterlimit:2;stroke-dasharray:none;stroke-opacity:1;paint-order:stroke fill markers"
       d="m 641.69778,1508.9213 v 19.9998 h -59.99995 v 100.0001 h 99.99958 v -59.9999 h 20.00033 v -60 z m 69.99986,0 v 79.9998 h 24.34787 v -19.5502 h 30.70459 c 17.27134,0 22.66869,-0.4799 28.06598,-2.279 9.5952,-3.4782 12.83385,-10.4347 12.83385,-28.1858 0,-20.5098 -4.31792,-26.9866 -19.43034,-29.2654 -4.43778,-0.5997 -6.59685,-0.7194 -21.70927,-0.7194 z m 328.03636,0 v 15.952 h 21.2291 v -15.952 z m 30.8244,0 v 79.9998 h 21.2297 v -22.7888 h 5.3971 l 22.7888,22.7888 h 28.1859 l -33.3437,-30.3449 29.3853,-26.3865 h -28.4257 l -19.4303,18.4707 h -4.5574 v -41.7391 z m 80.8395,0 v 79.9998 h 82.3991 v -20.39 h -56.8518 v -59.6098 z m 257.3916,0 v 15.952 h 21.2292 v -15.952 z m -503.9884,10.1948 v 13.0736 h -11.15436 v 15.2321 h 11.15436 v 16.552 c 0,4.6776 -5e-5,7.5562 0.11989,8.5157 0.23988,6.4768 1.43948,9.5951 4.43797,12.5936 4.1979,4.0779 9.71514,5.2772 23.26835,5.2772 14.63267,0 21.10955,-1.7992 25.42739,-7.1965 3.23838,-4.1979 4.07769,-7.6761 4.31757,-18.4707 h -19.42983 c 0,5.8771 -0.1201,6.3572 -0.83974,7.6766 -0.95952,2.0389 -3.35818,2.8783 -7.67602,2.8783 -4.07795,0 -6.23689,-0.8394 -7.31634,-2.7585 -0.95952,-1.4392 -1.07953,-2.2788 -1.07953,-8.5157 v -16.552 h 33.58297 v -15.2321 h -33.58297 v -13.0736 z m -168.75559,9.835 h 30.46481 c 10.67465,0.12 10.91439,0.1202 12.59355,0.7199 3.11843,1.0794 4.19819,3.478 4.19819,9.2351 0,5.5172 -0.71993,7.6764 -2.99878,9.1157 -2.03898,1.1994 -2.51861,1.1993 -13.79296,1.3193 h -30.46481 z m 120.65982,1.679 c -17.03146,0 -26.86657,1.0796 -31.78411,3.3584 -6.59669,3.2384 -9.35524,7.6762 -9.95494,15.952 h 21.22919 c 0.5997,-5.1574 2.15882,-5.6368 17.39119,-5.6368 12.83357,0 14.51281,1.1993 14.51281,10.0748 v 2.9983 h -0.95963 c -3.35832,-3.5982 -6.23682,-4.4375 -16.07189,-4.4375 -15.59219,0 -21.1092,0.3596 -26.26662,1.7989 -8.27585,2.1589 -12.11398,7.7962 -12.11398,17.9911 0,13.4333 5.87697,17.631 24.70753,17.631 13.79309,0 19.19065,-0.4795 22.6689,-1.9188 3.83808,-1.5592 6.1167,-3.5982 7.9158,-7.3163 h 0.83974 v 7.7959 h 20.38945 v -34.1829 c 0,-10.3149 -1.19944,-14.6327 -4.79764,-18.4707 -4.79759,-4.7976 -9.11512,-5.6374 -27.7058,-5.6374 z m 424.10797,0 c -17.0315,0 -26.8666,1.0796 -31.7841,3.3584 -6.5967,3.2384 -9.3553,7.6762 -9.955,15.952 h 21.2292 c 0.5997,-5.1574 2.1589,-5.6368 17.3912,-5.6368 12.8336,0 14.5128,1.1993 14.5128,10.0748 v 2.9983 h -0.9596 c -3.3583,-3.5982 -6.2368,-4.4375 -16.0719,-4.4375 -15.5922,0 -21.1092,0.3596 -26.2666,1.7989 -8.2759,2.1589 -12.114,7.7962 -12.114,17.9911 0,13.4333 5.877,17.631 24.7075,17.631 13.7931,0 19.1907,-0.4795 22.6689,-1.9188 3.8381,-1.5592 6.1167,-3.5982 7.9158,-7.3163 h 0.8398 v 7.7959 h 20.3894 v -34.1829 c 0,-10.3149 -1.1989,-14.6327 -4.7971,-18.4707 -4.7976,-4.7976 -9.1156,-5.6374 -27.7063,-5.6374 z m -269.9851,0.1204 c -11.87403,0 -17.87112,2.7585 -21.82914,9.9549 h -1.07952 v -8.5157 h -20.02978 v 56.7314 h 21.22919 v -23.5081 c 0,-8.7556 0.60014,-11.8741 2.63912,-14.6327 2.03898,-2.6387 5.99658,-4.0778 10.79413,-4.0778 8.7557,0 11.1544,2.2785 11.1544,10.6743 h 20.0303 v -3.838 c 0,-17.0315 -5.7573,-22.7883 -22.9087,-22.7883 z m 356.9415,0 c -13.793,0 -20.27,2.7585 -24.108,10.0748 h -1.0791 v -8.6356 h -20.0303 v 56.7314 h 21.2298 v -22.6684 c 0,-10.4348 0.4794,-13.0735 3.1181,-15.8321 2.5188,-2.6387 6.7167,-3.7181 14.5128,-3.7181 7.9161,0 11.9942,0.8393 14.2731,3.1181 2.2788,2.159 2.6386,4.198 2.6386,13.3134 v 25.7871 h 21.2291 v -25.7871 c 0,-15.5921 -1.0794,-19.9102 -6.2368,-25.3075 -5.0375,-5.1574 -11.9941,-7.076 -25.5473,-7.076 z m -328.0357,1.4392 v 56.7314 h 21.2291 v -56.7314 z m 369.0555,0 v 56.7314 h 21.2292 v -56.7314 z m -558.44089,32.7432 c 8.99549,0 12.35373,0.1202 13.67307,0.6 2.3988,0.8395 3.71812,2.5187 3.71812,4.7976 0,5.0375 -4.19808,6.4766 -19.19056,6.4766 -11.39429,0 -14.6327,-1.3194 -14.6327,-5.8771 0,-4.6777 3.47857,-5.9971 16.43207,-5.9971 z m 424.10799,0 c 8.9955,0 12.3537,0.1202 13.673,0.6 2.3988,0.8395 3.7182,2.5187 3.7182,4.7976 0,5.0375 -4.1981,6.4766 -19.1906,6.4766 -11.3943,0 -14.6327,-1.3194 -14.6327,-5.8771 0,-4.6777 3.4786,-5.9971 16.4321,-5.9971 z"
       inkscape:export-filename="..\..\..\Documents\patriklani.github.io\assets\PatrikLani-logo.svg"
       inkscape:export-xdpi="203.20001"
       inkscape:export-ydpi="203.20001" /><path
       style="font-size:119.94px;line-height:0.9;font-family:'Microgramma D Extended';-inkscape-font-specification:'Microgramma D Extended';letter-spacing:0px;word-spacing:0px;baseline-shift:baseline;fill:#2c4251;stroke-width:75.5527;stroke-linecap:square;stroke-miterlimit:2;paint-order:stroke fill markers"
       d="m 711.69773,1588.9211 h 24.34782 v -19.5502 h 30.70464 c 17.27136,0 22.66866,-0.4797 28.06596,-2.2788 9.5952,-3.4783 12.83358,-10.4348 12.83358,-28.1859 0,-20.5098 -4.31784,-26.9865 -19.43028,-29.2654 -4.43778,-0.5997 -6.5967,-0.7196 -21.70914,-0.7196 h -54.81258 z m 24.34782,-39.5802 v -20.3898 h 30.46476 c 10.67466,0.12 10.91454,0.12 12.5937,0.7197 3.11844,1.0794 4.1979,3.4782 4.1979,9.2354 0,5.5172 -0.71964,7.6761 -2.9985,9.1154 -2.03898,1.1994 -2.51874,1.1994 -13.7931,1.3193 z m 100.14994,0.5997 c 0.5997,-5.1574 2.15892,-5.6371 17.3913,-5.6371 12.83358,0 14.51274,1.1994 14.51274,10.0749 v 2.9985 h -0.95952 c -3.35832,-3.5982 -6.23688,-4.4378 -16.07196,-4.4378 -15.5922,0 -21.10944,0.3599 -26.26686,1.7991 -8.27586,2.159 -12.11394,7.7961 -12.11394,17.991 0,13.4333 5.87706,17.6312 24.70764,17.6312 13.7931,0 19.1904,-0.4797 22.66866,-1.919 3.83808,-1.5592 6.11694,-3.5982 7.91604,-7.3164 h 0.83958 v 7.7961 h 20.3898 v -34.1829 c 0,-10.3148 -1.1994,-14.6326 -4.7976,-18.4707 -4.7976,-4.7976 -9.11544,-5.6372 -27.70614,-5.6372 -17.03148,0 -26.86656,1.0795 -31.7841,3.3583 -6.5967,3.2384 -9.35532,7.6762 -9.95502,15.952 z m 14.15292,14.9925 c 8.9955,0 12.35382,0.12 13.67316,0.5997 2.3988,0.8396 3.71814,2.5188 3.71814,4.7976 0,5.0375 -4.1979,6.4768 -19.1904,6.4768 -11.3943,0 -14.63268,-1.3193 -14.63268,-5.8771 0,-4.6776 3.47826,-5.997 16.43178,-5.997 z m 54.45286,-45.817 v 13.0734 h -11.15442 v 15.2324 h 11.15442 v 16.5517 c 0,4.6777 0,7.5562 0.11994,8.5158 0.23988,6.4767 1.43928,9.5952 4.43778,12.5937 4.1979,4.0779 9.71514,5.2773 23.26836,5.2773 14.63268,0 21.10944,-1.7991 25.42728,-7.1964 3.23838,-4.1979 4.07796,-7.6761 4.31784,-18.4707 h -19.43028 c 0,5.877 -0.11994,6.3568 -0.83958,7.6761 -0.95952,2.039 -3.35832,2.8786 -7.67616,2.8786 -4.07796,0 -6.23688,-0.8396 -7.31634,-2.7586 -0.95952,-1.4393 -1.07946,-2.2789 -1.07946,-8.5158 v -16.5517 h 33.5832 v -15.2324 h -33.5832 v -13.0734 z m 63.08849,13.0734 v 56.7316 h 21.22938 v -23.5082 c 0,-8.7556 0.5997,-11.8741 2.63868,-14.6327 2.03898,-2.6387 5.997,-4.0779 10.79458,-4.0779 8.7556,0 11.1544,2.2788 11.1544,10.6746 h 20.03 v -3.8381 c 0,-17.0314 -5.7571,-22.7886 -22.9085,-22.7886 -11.87408,0 -17.87108,2.7587 -21.8291,9.9551 h -1.07946 v -8.5158 z m 71.84414,0 v 56.7316 h 21.2294 v -56.7316 z m 0,-23.2683 v 15.952 h 21.2294 v -15.952 z m 30.8246,0 v 79.9999 h 21.2294 v -22.7886 h 5.3973 l 22.7886,22.7886 h 28.1859 l -33.3433,-30.3448 29.3853,-26.3868 h -28.4258 l -19.4303,18.4708 h -4.5577 v -41.7391 z m 80.8395,0 v 79.9999 h 82.3988 v -20.3898 h -56.8515 v -59.6101 z m 108.9055,41.0194 c 0.5997,-5.1574 2.1589,-5.6371 17.3913,-5.6371 12.8336,0 14.5127,1.1994 14.5127,10.0749 v 2.9985 h -0.9595 c -3.3583,-3.5982 -6.2369,-4.4378 -16.0719,-4.4378 -15.5922,0 -21.1095,0.3599 -26.2669,1.7991 -8.2759,2.159 -12.1139,7.7961 -12.1139,17.991 0,13.4333 5.877,17.6312 24.7076,17.6312 13.7931,0 19.1904,-0.4797 22.6687,-1.919 3.838,-1.5592 6.1169,-3.5982 7.916,-7.3164 h 0.8396 v 7.7961 h 20.3898 v -34.1829 c 0,-10.3148 -1.1994,-14.6326 -4.7976,-18.4707 -4.7976,-4.7976 -9.1155,-5.6372 -27.7062,-5.6372 -17.0314,0 -26.8665,1.0795 -31.7841,3.3583 -6.5967,3.2384 -9.3553,7.6762 -9.955,15.952 z m 14.1529,14.9925 c 8.9955,0 12.3538,0.12 13.6732,0.5997 2.3988,0.8396 3.7181,2.5188 3.7181,4.7976 0,5.0375 -4.1979,6.4768 -19.1904,6.4768 -11.3943,0 -14.6327,-1.3193 -14.6327,-5.8771 0,-4.6776 3.4783,-5.997 16.4318,-5.997 z m 48.096,-32.7436 v 56.7316 h 21.2294 v -22.6686 c 0,-10.4348 0.4798,-13.0735 3.1184,-15.8321 2.5188,-2.6387 6.7167,-3.7181 14.5128,-3.7181 7.916,0 11.994,0.8395 14.2728,3.1184 2.2789,2.1589 2.6387,4.1979 2.6387,13.3133 v 25.7871 h 21.2294 v -25.7871 c 0,-15.5922 -1.0795,-19.91 -6.2369,-25.3073 -5.0375,-5.1574 -11.994,-7.0765 -25.5472,-7.0765 -13.7931,0 -20.2699,2.7587 -24.1079,10.075 h -1.0795 v -8.6357 z m 86.2369,0 v 56.7316 h 21.2294 v -56.7316 z m 0,-23.2683 v 15.952 h 21.2294 v -15.952 z"
       id="text113-1"
       aria-label="PatrikLani" /><rect
       style="fill:#2c4251;fill-opacity:1;stroke:none;stroke-width:10;stroke-linecap:square;stroke-miterlimit:5;stroke-dasharray:none;stroke-opacity:1;paint-order:stroke fill markers"
       id="rect64-4"
       width="100"
       height="100"
       x="581.69763"
       y="1528.9211" /><rect
       style="fill:#fcfff7;fill-opacity:1;stroke:none;stroke-width:10;stroke-linecap:square;stroke-miterlimit:5;stroke-dasharray:none;stroke-opacity:1;paint-order:stroke fill markers"
       id="rect65-7"
       width="40"
       height="40"
       x="621.69763"
       y="1548.9211" /><rect
       style="fill:#519e8a;fill-opacity:1;stroke:none;stroke-width:10;stroke-linecap:square;stroke-miterlimit:5;stroke-dasharray:none;stroke-opacity:1;paint-order:stroke fill markers"
       id="rect66-6"
       width="60"
       height="60"
       x="641.69763"
       y="1508.9211" /></g></svg>
