<?xml version="1.0" encoding="UTF-8" standalone="no"?>
<!-- Created with Inkscape (http://www.inkscape.org/) -->

<svg
   width="121.65562mm"
   height="83.900818mm"
   viewBox="0 0 121.65562 83.900818"
   version="1.1"
   id="svg5"
   xml:space="preserve"
   sodipodi:docname="YouTube_2024.svg"
   xmlns:inkscape="http://www.inkscape.org/namespaces/inkscape"
   xmlns:sodipodi="http://sodipodi.sourceforge.net/DTD/sodipodi-0.dtd"
   xmlns="http://www.w3.org/2000/svg"
   xmlns:svg="http://www.w3.org/2000/svg"><sodipodi:namedview
     id="namedview1"
     pagecolor="#ffffff"
     bordercolor="#999999"
     borderopacity="1"
     inkscape:showpageshadow="2"
     inkscape:pageopacity="0"
     inkscape:pagecheckerboard="0"
     inkscape:deskcolor="#d1d1d1"
     inkscape:document-units="mm" /><defs
     id="defs2" /><path
     id="path1"
     clip-path="none"
     style="fill:#2c4251;fill-opacity:1;stroke-width:0.0208149"
     d="m 60.763731,1.1375575e-5 c 0,0 -38.025339,4e-5 -47.435864,2.559010024425 -5.2375265,1.38435 -9.3255195,5.41148 -10.8158775,10.6133096 -2.51231395501,9.22905 -2.511990955009,28.69437 -2.511990955009,28.69437 0,0 -3.23000001e-4,19.59071 2.511990955009,28.90366 1.490358,5.07598 5.578351,9.187 10.8158775,10.61331 9.410525,2.51702 47.435864,2.51716 47.435864,2.51716 0,0 38.11046,-1.4e-4 47.563509,-2.51716 5.32264,-1.42631 9.32569,-5.53733 10.73061,-10.61331 2.59755,-9.31295 2.59777,-28.90366 2.59777,-28.90366 0,0 -2.2e-4,-19.46532 -2.59777,-28.69437 C 117.65293,7.9705014 113.64988,3.9433714 108.32724,2.5590214 98.874181,5.1375575e-5 60.763731,1.1375575e-5 60.763731,1.1375575e-5 Z M 48.242532,24.121531 79.705211,41.950421 48.242532,59.779301 Z" /></svg>
